<svg width="160" height="160" viewBox="0 0 160 160" fill="none" xmlns="http://www.w3.org/2000/svg">
  <rect width="160" height="160" rx="40" fill="#FFF3D8"/>
  <ellipse cx="80" cy="97" rx="45" ry="38" fill="#F7B55B"/>
  <ellipse cx="42" cy="59" rx="16" ry="24" transform="rotate(-25 42 59)" fill="#B8742B"/>
  <ellipse cx="118" cy="59" rx="16" ry="24" transform="rotate(25 118 59)" fill="#B8742B"/>
  <circle cx="80" cy="74" r="34" fill="#FFD08A"/>
  <ellipse cx="67" cy="74" rx="5" ry="6" fill="#5B3713"/>
  <ellipse cx="93" cy="74" rx="5" ry="6" fill="#5B3713"/>
  <ellipse cx="80" cy="89" rx="17" ry="12" fill="#FFF8F0"/>
  <ellipse cx="80" cy="86" rx="7" ry="5" fill="#5B3713"/>
  <path d="M74 95C77 99 83 99 86 95" stroke="#5B3713" stroke-width="4" stroke-linecap="round"/>
  <circle cx="53" cy="112" r="7" fill="#FFF8F0"/>
  <circle cx="107" cy="112" r="7" fill="#FFF8F0"/>
  <path d="M30 28C45 20 59 22 67 31" stroke="#FFD766" stroke-width="7" stroke-linecap="round"/>
</svg>
