<svg width="1600" height="900" viewBox="0 0 1600 900" fill="none" xmlns="http://www.w3.org/2000/svg">
  <defs>
    <linearGradient id="hangar" x1="190" y1="44" x2="1450" y2="884" gradientUnits="userSpaceOnUse">
      <stop stop-color="#EFF4FB"/>
      <stop offset="1" stop-color="#D5E1EE"/>
    </linearGradient>
  </defs>
  <rect width="1600" height="900" fill="url(#hangar)"/>
  <g stroke="#9AAEC6" stroke-width="10" opacity="0.7">
    <path d="M260 0V900"/>
    <path d="M520 0V900"/>
    <path d="M780 0V900"/>
    <path d="M1040 0V900"/>
    <path d="M1300 0V900"/>
    <path d="M0 184H1600"/>
    <path d="M0 368H1600"/>
    <path d="M0 552H1600"/>
    <path d="M0 736H1600"/>
  </g>
  <path d="M698 258H902L964 446H636L698 258Z" fill="#FFFFFF" opacity="0.86"/>
  <path d="M748 222L800 130L852 222H748Z" fill="#E6EDF7"/>
  <rect x="748" y="446" width="104" height="224" rx="24" fill="#D7E5F5"/>
  <path d="M676 446L748 560V686H676V446Z" fill="#B8CCE5"/>
  <path d="M852 446L924 560V686H852V446Z" fill="#B8CCE5"/>
  <path d="M0 820C224 794 414 786 606 798C760 808 862 844 1020 844C1214 844 1392 798 1600 806V900H0V820Z" fill="#FFFFFF" opacity="0.35"/>
  <path d="M780 326H820L874 286" stroke="#FF7467" stroke-width="18" stroke-linecap="round"/>
  <path d="M820 326H780L726 286" stroke="#FFC42D" stroke-width="18" stroke-linecap="round"/>
</svg>
