<svg width="1600" height="900" viewBox="0 0 1600 900" fill="none" xmlns="http://www.w3.org/2000/svg">
  <defs>
    <linearGradient id="rescueSky" x1="160" y1="80" x2="1460" y2="880" gradientUnits="userSpaceOnUse">
      <stop stop-color="#E2F0FF"/>
      <stop offset="1" stop-color="#FFF4C6"/>
    </linearGradient>
    <linearGradient id="road" x1="800" y1="560" x2="800" y2="900" gradientUnits="userSpaceOnUse">
      <stop stop-color="#FFE3B5"/>
      <stop offset="1" stop-color="#FFB86A"/>
    </linearGradient>
  </defs>
  <rect width="1600" height="900" fill="url(#rescueSky)"/>
  <g fill="#FFFFFF" opacity="0.9">
    <ellipse cx="254" cy="188" rx="88" ry="42"/>
    <ellipse cx="328" cy="176" rx="54" ry="28"/>
    <ellipse cx="1180" cy="144" rx="96" ry="44"/>
    <ellipse cx="1260" cy="132" rx="58" ry="30"/>
  </g>
  <path d="M0 700C196 670 384 660 560 684C702 704 792 746 940 748C1108 750 1258 698 1406 688C1472 684 1538 686 1600 694V900H0V700Z" fill="url(#road)"/>
  <path d="M656 708H944L982 900H618L656 708Z" fill="#FFFFFF" opacity="0.78"/>
  <path d="M730 708H870V900H730V708Z" fill="#7AB6FF" opacity="0.7"/>
  <circle cx="682" cy="812" r="52" fill="#2D4D7A"/>
  <circle cx="918" cy="812" r="52" fill="#2D4D7A"/>
  <circle cx="682" cy="812" r="22" fill="#DCE7F8"/>
  <circle cx="918" cy="812" r="22" fill="#DCE7F8"/>
</svg>
